<?xml version="1.0" encoding="utf-8"?>
<!-- Generator: Adobe Illustrator 13.0.0, SVG Export Plug-In  -->
<!DOCTYPE svg PUBLIC "-//W3C//DTD SVG 1.1//EN" "http://www.w3.org/Graphics/SVG/1.1/DTD/svg11.dtd" [
	<!ENTITY ns_flows "http://ns.adobe.com/Flows/1.0/">
]>
<svg version="1.1"
	 xmlns="http://www.w3.org/2000/svg" xmlns:xlink="http://www.w3.org/1999/xlink" xmlns:a="http://ns.adobe.com/AdobeSVGViewerExtensions/3.0/"
	 x="0px" y="0px" width="900px" height="600px" viewBox="-11.5 -205.821 900 600" enable-background="new -11.5 -205.821 900 600"
	 xml:space="preserve">
<defs>
</defs>
<text transform="matrix(1 0 0 1 0 145.6787)" font-family="'OpenSans-Light'" font-size="170">Lynkd</text>
<line fill="none" stroke="#000000" stroke-width="8" x1="445" y1="35.179" x2="503" y2="35.179"/>
<path fill="none" stroke="#000000" stroke-width="8" d="M502.5,35.679c13.266,0,24,10.734,24,24"/>
<line fill="none" stroke="#000000" stroke-width="8" x1="509" y1="100.679" x2="467.5" y2="100.679"/>
<path fill="none" stroke="#000000" stroke-width="8" d="M468,100.179c-13.266,0-24-10.734-24-24"/>
<line fill="none" stroke="#000000" stroke-width="8" x1="587" y1="133.679" x2="529" y2="133.679"/>
<path fill="none" stroke="#000000" stroke-width="8" d="M529.5,133.179c-13.266,0-24-10.734-24-24"/>
<text transform="matrix(1 0 0 1 588.4531 146.1338)" font-family="'OpenSans-Light'" font-size="170">me</text>
<line fill="none" stroke="#000000" stroke-width="8" x1="586.5" y1="68.179" x2="528.5" y2="68.179"/>
<path fill="none" stroke="#000000" stroke-width="8" d="M529,68.679c-13.266,0-24,10.734-24,24"/>
<path fill="none" stroke="#000000" stroke-width="8" d="M508.5,100.679c9.949,0,18-6.709,18-15"/>
</svg>
